# xmcd
#
# Track frame offsets:
#   150
#   17767
#   40015
#   53850
#   68645
#   84597
#   99135
#   117567
#   137320
#   155732
#   173740
#   186415
#
# Disc length: 2673 seconds
#
# Revision: 0
# Processed by: cddbd v1.5.1PL0 Copyright (c) Steve Scherf et al.
# Submitted via: uFREEDB ActiveX Control 1.5
#
DISCID=960a6f0c
DTITLE=Grupo Quero-Quero - Pra Todas as Festas
DYEAR=1900
DGENRE=Alternative
TTITLE0=Vanera pra Mim
TTITLE1=Quando Alguém Vem na Estrada
TTITLE2=No Tranco do Quero-Quero
TTITLE3=Os "Zóio" da Quatiara
TTITLE4=Alma Estradeira
TTITLE5=Bate Que Bate
TTITLE6=Fiz a Moça Feliz
TTITLE7=Sou Rio Grande
TTITLE8=Na Garupa o Meu Sonho
TTITLE9=Amada Mia
TTITLE10=Xote do Cahmego
TTITLE11=Sinais
EXTD=
EXTT0=
EXTT1=
EXTT2=
EXTT3=
EXTT4=
EXTT5=
EXTT6=
EXTT7=
EXTT8=
EXTT9=
EXTT10=
EXTT11=
PLAYORDER=
